<?xml version="1.0" encoding="UTF-8" standalone="no"?>
<svg
   xmlns:dc="http://purl.org/dc/elements/1.1/"
   xmlns:cc="http://creativecommons.org/ns#"
   xmlns:rdf="http://www.w3.org/1999/02/22-rdf-syntax-ns#"
   xmlns:svg="http://www.w3.org/2000/svg"
   xmlns="http://www.w3.org/2000/svg"
   xmlns:sodipodi="http://sodipodi.sourceforge.net/DTD/sodipodi-0.dtd"
   xmlns:inkscape="http://www.inkscape.org/namespaces/inkscape"
   aria-label="Threads"
   viewBox="0 0 700 700"
   version="1.1"
   id="svg4"
   sodipodi:docname="threads-logo.svg"
   width="700"
   height="700"
   inkscape:version="0.92.0 r15299"
   inkscape:export-filename="C:\Users\suitedoalex\sites\threads-logo-0.png"
   inkscape:export-xdpi="561.73712"
   inkscape:export-ydpi="561.73712">
  <metadata
     id="metadata10">
    <rdf:RDF>
      <cc:Work
         rdf:about="">
        <dc:format>image/svg+xml</dc:format>
        <dc:type
           rdf:resource="http://purl.org/dc/dcmitype/StillImage" />
        <dc:title></dc:title>
      </cc:Work>
    </rdf:RDF>
  </metadata>
  <defs
     id="defs8" />
  <sodipodi:namedview
     pagecolor="#ffffff"
     bordercolor="#666666"
     borderopacity="1"
     objecttolerance="10"
     gridtolerance="10"
     guidetolerance="10"
     inkscape:pageopacity="0"
     inkscape:pageshadow="2"
     inkscape:window-width="1920"
     inkscape:window-height="1017"
     id="namedview6"
     showgrid="false"
     inkscape:zoom="0.86915209"
     inkscape:cx="460.99676"
     inkscape:cy="317.78907"
     inkscape:window-x="-8"
     inkscape:window-y="-8"
     inkscape:window-maximized="1"
     inkscape:current-layer="svg4" />
  <path
     class="x19hqcy"
     d="m 470.5574,331.60165 c -2.17,-1.04013 -4.37412,-2.04116 -6.6071,-2.99969 -3.88869,-71.65191 -43.04063,-112.67262 -108.7813,-113.09245 -0.29782,-0.002 -0.59407,-0.002 -0.89188,-0.002 -39.32145,0 -72.0245,16.78435 -92.15308,47.32659 l 36.15539,24.80182 c 15.0368,-22.81393 38.63554,-27.67741 56.01501,-27.67741 0.20073,0 0.40224,0 0.60088,0.002 21.646,0.13802 37.98008,6.43156 48.55197,18.70482 7.69342,8.93533 12.83899,21.28285 15.38683,36.86596 -19.19155,-3.26184 -39.94699,-4.26471 -62.1351,-2.99262 -62.50324,3.60032 -102.68535,40.05353 -99.98661,90.70649 1.36944,25.69371 14.16959,47.79786 36.04099,62.23744 18.49201,12.20661 42.30854,18.17609 67.06103,16.82476 32.68837,-1.79216 58.33222,-14.26378 76.2223,-37.06853 13.58681,-17.31806 22.18024,-39.76069 25.97447,-68.03898 15.57839,9.4016 27.12375,21.77352 33.49995,36.64607 10.84216,25.28174 11.47452,66.82672 -22.42426,100.69665 -29.70048,29.67161 -65.40192,42.50797 -119.35687,42.90418 C 293.87959,557.0033 248.61543,537.80912 219.18601,500.39686 191.62772,465.36452 177.38546,414.7643 176.8541,349.99999 c 0.53136,-64.76482 14.77362,-115.36557 42.33191,-150.39765 29.42942,-37.41173 74.6928,-56.60565 134.54323,-57.05041 60.28469,0.44818 106.33762,19.73446 136.8935,57.32672 14.98274,18.43481 26.27884,41.61793 33.72561,68.64853 l 42.3689,-11.30424 C 557.69086,223.95127 543.48743,195.28071 524.15943,171.50327 484.98649,123.30836 427.6952,98.613005 353.87696,98.100935 h -0.29545 c -73.66815,0.51028 -130.31789,25.299595 -168.37511,73.678645 -33.86573,43.05139 -51.33467,102.9543 -51.92165,178.04331 l -0.002,0.17711 0.002,0.17713 c 0.58698,75.08821 18.05592,134.99295 51.92165,178.04408 38.05722,48.37774 94.70696,73.16881 168.37511,73.67786 h 0.29545 C 419.37203,601.44512 465.53778,584.29761 503.5693,546.30022 553.32723,496.58951 551.82896,434.2786 535.42928,396.02668 523.6635,368.59592 501.23136,346.3165 470.5574,331.60165 Z m -113.083,106.31899 c -27.39402,1.54289 -55.85363,-10.75293 -57.25692,-37.08951 -1.04014,-19.52743 13.89695,-41.31669 58.93809,-43.91231 5.15815,-0.29756 10.21975,-0.44291 15.19213,-0.44291 16.36032,0 31.66582,1.58932 45.58061,4.63126 -5.19017,64.81678 -35.63322,75.34144 -62.45391,76.81347 z"
     id="path2"
     inkscape:connector-curvature="0"
     style="stroke-width:2.62394857"
     inkscape:export-filename="C:\Users\suitedoalex\sites\threads-logo.png"
     inkscape:export-xdpi="907.20978"
     inkscape:export-ydpi="907.20978" />
</svg>
